#!OML:ASF E:\acrobat2\Project_11_07_03\Capture day 1\Session 1\Acrobat.ASF
:FULLY-SPECIFIED
:DEGREES
350
root 10.2272 14.319 24.2597 -115.723 2.04881 185.065
lowerback 62.2 1.06192 -0.404065
upperback 11.1279 5.16307 -3.07255
thorax -8.67187 3.65066 -5.75598
lowerneck 0.48965 -4.38793 5.43586
upperneck 9.51717 -6.12896 -0.379606
head 2.77003 -2.86893 -1.17772
rclavicle -3.02153e-014 2.94201e-014
rhumerus 61.6738 -11.7342 -72.9045
rradius 49.324
rwrist 13.9748
rhand -39.8099 -76.7868
rfingers 7.12502
rthumb -12.7845 106.375
lclavicle -3.02153e-014 2.94201e-014
lhumerus 70.9952 -7.05761 65.2777
lradius 47.8897
lwrist 6.4858
lhand -57.8335 -39.1084
lfingers 7.12502
lthumb -30.087 -11.5369
rfemur -45.3546 -13.6363 -7.49786
rtibia 33.0268
rfoot -28.9981 -11.868
rtoes -32.3853
lfemur -43.4449 33.9416 3.07532
ltibia 37.6453
lfoot -27.8773 -17.4611
ltoes 26.9275
351
root 10.2059 14.3118 23.8813 -113.272 1.80383 184.973
lowerback 61.4762 0.90117 -0.397481
upperback 11.5711 4.93919 -2.86377
thorax -8.18532 3.48276 -5.36717
lowerneck 0.529171 -4.20496 4.62421
upperneck 10.8438 -5.97443 -0.0660031
head 3.25364 -2.78576 -0.966508
rclavicle -8.50798e-014 7.95139e-015
rhumerus 60.7135 -11.4934 -72.7773
rradius 53.5115
rwrist 14.3441
rhand -39.9489 -77.2041
rfingers 7.12502
rthumb -12.9186 106.784
lclavicle -8.50798e-014 7.95139e-015
lhumerus 69.8473 -6.16962 65.6921
lradius 51.964
lwrist 6.23261
lhand -57.9861 -40.6235
lfingers 7.12502
lthumb -30.2326 -13.0786
rfemur -45.4961 -13.0746 -8.29404
rtibia 31.2301
rfoot -26.8817 -12.2191
rtoes -28.4024
lfemur -43.6633 33.3923 2.81633
ltibia 35.2677
lfoot -25.4819 -17.2666
ltoes 33.1535
352
root 10.1844 14.3098 23.4929 -110.63 1.52436 184.74
lowerback 60.5847 0.673566 -0.268643
upperback 12.0443 4.70274 -2.65118
thorax -7.65502 3.30456 -5.02137
lowerneck 0.651273 -4.05112 3.89282
upperneck 12.0777 -5.85293 0.208331
head 3.69508 -2.72043 -0.773395
rclavicle -4.77083e-014 2.78299e-014
rhumerus 59.9657 -11.4237 -72.5288
rradius 57.278
rwrist 14.7904
rhand -39.9014 -77.7233
rfingers 7.12502
rthumb -12.8727 107.306
lclavicle -4.77083e-014 2.78299e-014
lhumerus 68.7963 -5.33586 65.9188
lradius 56.0508
lwrist 5.95758
lhand -58.0612 -41.4526
lfingers 7.12502
lthumb -30.3042 -13.9209
rfemur -45.5737 -12.589 -9.27609
rtibia 29.0911
rfoot -24.6844 -12.948
rtoes -23.4196
lfemur -43.8735 32.5812 2.59846
ltibia 32.4231
lfoot -22.8558 -16.7238
ltoes 39.4231
353
root 10.1628 14.3106 23.0965 -107.799 1.22254 184.362
lowerback 59.5222 0.352809 0.0196082
upperback 12.53 4.43042 -2.47447
thorax -7.09515 3.1107 -4.77221
lowerneck 0.800696 -3.8884 3.21798
upperneck 13.3917 -5.73521 0.528008
head 4.1698 -2.65085 -0.571232
rclavicle 4.21423e-014 -2.38542e-015
rhumerus 59.4681 -11.5251 -72.2416
rradius 60.5794
rwrist 15.1175
rhand -39.8282 -78.4068
rfingers 7.12502
rthumb -12.8022 107.994
lclavicle 4.21423e-014 -2.38542e-015
lhumerus 67.9273 -4.61265 66.0213
lradius 59.9243
lwrist 5.64752
lhand -58.1503 -42.1001
lfingers 7.12502
lthumb -30.3892 -14.584
rfemur -45.5621 -12.1219 -10.4912
rtibia 26.6021
rfoot -22.5742 -14.1736
rtoes -17.6194
lfemur -44.027 31.418 2.52785
ltibia 29.0881
lfoot -20.3018 -15.6696
ltoes 45.1464
354
root 10.1417 14.311 22.6934 -104.824 0.912851 183.867
lowerback 58.3118 -0.101884 0.479715
upperback 13.0548 4.07964 -2.39862
thorax -6.47039 2.89262 -4.68011
lowerneck 1.03931 -3.68729 2.62451
upperneck 14.4689 -5.55948 0.938943
head 4.55188 -2.54768 -0.338475
rclavicle -8.74653e-015 -1.90833e-014
rhumerus 59.3338 -11.7877 -72.0063
rradius 63.4266
rwrist 15.1802
rhand -39.8411 -79.1739
rfingers 7.12502
rthumb -12.8146 108.761
lclavicle -8.74653e-015 -1.90833e-014
lhumerus 67.4118 -3.9262 65.9797
lradius 63.3728
lwrist 5.29682
lhand -58.3423 -42.8894
lfingers 7.12502
lthumb -30.5724 -15.4073
rfemur -45.4065 -11.5212 -12.002
rtibia 23.7655
rfoot -20.806 -15.9548
rtoes -11.1289
lfemur -43.9808 29.7819 2.81165
ltibia 25.2235
lfoot -18.4574 -13.9261
ltoes 49.5124
355
root 10.1223 14.308 22.2851 -101.744 0.631889 183.297
lowerback 56.9872 -0.635276 1.04047
upperback 13.5929 3.65932 -2.41331
thorax -5.81077 2.65214 -4.71085
lowerneck 1.31755 -3.43634 2.09683
upperneck 15.4631 -5.31596 1.37134
head 4.90076 -2.40673 -0.099286
rclavicle 2.38542e-014 0
rhumerus 59.3906 -12.1261 -71.8904
rradius 66.0176
rwrist 15.0341
rhand -39.9876 -79.9106
rfingers 7.12502
rthumb -12.9558 109.488
lclavicle 2.38542e-014 0
lhumerus 67.2521 -3.23402 65.8593
lradius 66.3306
lwrist 4.94004
lhand -58.5938 -43.9229
lfingers 7.12502
lthumb -30.8122 -16.4858
rfemur -45.0966 -10.612 -13.9022
rtibia 20.6337
rfoot -19.6764 -18.2794
rtoes -4.051
lfemur -43.5764 27.4634 3.72031
ltibia 20.791
lfoot -17.9844 -11.6605
ltoes 52.54
356
root 10.1065 14.2988 21.874 -98.5886 0.414736 182.738
lowerback 55.556 -1.14457 1.57614
upperback 14.1465 3.21903 -2.48391
thorax -5.11404 2.4058 -4.79251
lowerneck 1.51114 -3.14311 1.58795
upperneck 16.7535 -5.02521 1.85468
head 4.79472 -2.22671 0.129837
rclavicle 3.69739e-014 -3.33958e-014
rhumerus 59.591 -12.4849 -71.9092
rradius 68.4331
rwrist 14.781
rhand -40.2511 -80.5478
rfingers 7.12502
rthumb -13.2098 110.109
lclavicle 3.69739e-014 -3.33958e-014
lhumerus 67.391 -2.48468 65.724
lradius 68.8814
lwrist 4.63303
lhand -58.8014 -45.1744
lfingers 7.12502
lthumb -31.0101 -17.7749
rfemur -44.703 -9.20478 -16.2561
rtibia 17.3151
rfoot -19.4331 -21.0365
rtoes 3.16304
lfemur -42.6234 24.088 5.69238
ltibia 15.7469
lfoot -19.5767 -9.44316
ltoes 54.5139
357
root 10.0962 14.2811 21.4623 -95.4078 0.265091 182.28
lowerback 54.0935 -1.52757 1.95122
upperback 14.6811 2.8098 -2.55593
thorax -4.42353 2.16635 -4.8276
lowerneck 1.75877 -2.82511 1.15929
upperneck 17.4724 -4.65753 2.19237
head 4.99123 -2.02572 0.317939
rclavicle -9.54166e-015 1.59028e-014
rhumerus 59.8709 -12.7694 -72.0429
rradius 70.7015
rwrist 14.5311
rhand -40.5954 -81.0613
rfingers 7.12502
rthumb -13.5416 110.601
lclavicle -9.54166e-015 1.59028e-014
lhumerus 67.7207 -1.58163 65.5597
lradius 71.1196
lwrist 4.437
lhand -58.9518 -46.5495
lfingers 7.12502
lthumb -31.1534 -19.1774
rfemur -44.3307 -7.1509 -19.0855
rtibia 13.965
rfoot -20.2842 -23.9335
rtoes 10.131
lfemur -40.8972 18.7491 9.51716
ltibia 9.9544
lfoot -24.1881 -8.26085
ltoes 55.6871
358
root 10.0927 14.2538 21.0523 -92.2572 0.177086 181.996
lowerback 52.705 -1.70366 2.12231
upperback 15.1551 2.51619 -2.61099
thorax -3.78792 1.96702 -4.80956
lowerneck 1.92667 -2.53761 0.887936
upperneck 18.0918 -4.30141 2.36061
head 5.16146 -1.83136 0.428792
rclavicle 4.05521e-014 -1.51076e-014
rhumerus 60.1011 -13.0376 -72.2584
rradius 72.8602
rwrist 14.3541
rhand -40.9836 -81.5018
rfingers 7.12502
rthumb -13.9158 111.016
lclavicle 4.05521e-014 -1.51076e-014
lhumerus 68.0727 -0.771932 65.4835
lradius 73.2155
lwrist 4.14815
lhand -59.0649 -47.9734
lfingers 7.12502
lthumb -31.2612 -20.622
rfemur -44.1276 -4.45048 -22.3436
rtibia 10.7905
rfoot -22.2423 -26.5693
rtoes 16.4062
lfemur -40.0342 17.6076 9.6161
ltibia 5.14578
lfoot -24.2124 -5.07147
ltoes 56.21
359
root 10.096 14.2169 20.6467 -89.1933 0.125119 181.906
lowerback 51.4563 -1.65977 2.03849
upperback 15.5615 2.35076 -2.61909
thorax -3.22306 1.80939 -4.68288
lowerneck 1.98353 -2.30064 0.743671
upperneck 18.6205 -3.9775 2.32864
head 5.31526 -1.65783 0.45512
rclavicle -1.59028e-014 -2.38542e-015
rhumerus 60.3273 -13.2612 -72.4838
rradius 74.8739
rwrist 14.2124
rhand -41.3394 -81.9667
rfingers 7.12502
rthumb -14.2587 111.457
lclavicle -1.59028e-014 -2.38542e-015
lhumerus 68.3893 0.0751762 65.4127
lradius 75.2502
lwrist 3.90235
lhand -59.142 -49.336
lfingers 7.12502
lthumb -31.3346 -21.9988
rfemur -44.2397 -1.34477 -25.8528
rtibia 8.02974
rfoot -24.9451 -28.6268
rtoes 21.3427
lfemur -40.1565 16.8644 9.77184
ltibia 2.02358
lfoot -24.4416 -2.51967
ltoes 56.7449
360
root 10.1046 14.1715 20.2479 -86.2675 0.0714771 181.964
lowerback 50.3931 -1.46367 1.78218
upperback 15.9051 2.29231 -2.60272
thorax -2.73114 1.68976 -4.4971
lowerneck 1.95612 -2.15323 0.760293
upperneck 18.9807 -3.73522 2.11594
head 5.4256 -1.52828 0.395112
rclavicle 1.47101e-014 -2.54444e-014
rhumerus 60.5509 -13.489 -72.6992
rradius 76.7415
rwrist 14.0591
rhand -41.5834 -82.5014
rfingers 7.12502
rthumb -14.4938 111.975
lclavicle 1.47101e-014 -2.54444e-014
lhumerus 68.6348 0.892416 65.3461
lradius 77.277
lwrist 3.65979
lhand -59.2136 -50.6058
lfingers 7.12502
lthumb -31.4029 -23.2819
rfemur -44.715 1.68873 -29.2743
rtibia 5.89597
rfoot -27.7444 -29.9516
rtoes 24.7671
lfemur -40.237 16.322 10.0851
ltibia -0.467727
lfoot -24.6426 0.287181
ltoes 56.8333
361
root 10.1162 14.1189 19.8577 -83.5225 -0.00772356 182.089
lowerback 49.5761 -1.18577 1.4718
upperback 16.159 2.31546 -2.57583
thorax -2.35395 1.60311 -4.31122
lowerneck 1.87211 -2.10897 0.919952
upperneck 19.3946 -3.62518 1.80196
head 5.56017 -1.45623 0.273401
rclavicle 1.63003e-014 -1.66979e-014
rhumerus 60.6908 -13.7607 -72.8918
rradius 78.4878
rwrist 13.8802
rhand -41.6821 -83.0847
rfingers 7.12502
rthumb -14.5888 112.552
lclavicle 1.63003e-014 -1.66979e-014
lhumerus 68.7645 1.51828 65.3413
lradius 79.3151
lwrist 3.33631
lhand -59.2867 -51.7824
lfingers 7.12502
lthumb -31.4725 -24.4721
rfemur -45.4535 4.13429 -32.1993
rtibia 4.47838
rfoot -29.9357 -30.5981
rtoes 26.8348
lfemur -40.3275 15.9101 10.5591
ltibia -2.21916
lfoot -24.3698 3.14581
ltoes 56.7944
362
root 10.1287 14.0612 19.4771 -80.9885 -0.112362 182.201
lowerback 49.0129 -0.914178 1.19589
upperback 16.3435 2.35913 -2.56671
thorax -2.07832 1.5292 -4.17284
lowerneck 1.72264 -2.14474 1.18196
upperneck 19.8463 -3.63116 1.49605
head 5.71774 -1.42974 0.131033
rclavicle 3.73715e-014 -1.82882e-014
rhumerus 60.7575 -14.095 -73.0751
rradius 80.1374
rwrist 13.6416
rhand -41.6434 -83.6596
rfingers 7.12502
rthumb -14.5516 113.129
lclavicle 3.73715e-014 -1.82882e-014
lhumerus 68.8462 1.98761 65.3668
lradius 81.3012
lwrist 2.98065
lhand -59.3582 -52.9032
lfingers 7.12502
lthumb -31.5406 -25.6062
rfemur -46.2585 5.7111 -34.3453
rtibia 3.70046
rfoot -31.1661 -30.743
rtoes 27.8688
lfemur -40.4626 15.549 11.1797
ltibia -3.2065
lfoot -23.4926 5.67874
ltoes 56.785
